<?xml version="1.0" encoding="UTF-8"?>
<svg xmlns="http://www.w3.org/2000/svg" viewBox="0 0 160 120">
  <defs>
    <style>
      .f{fill:#222}
      .g{fill:#ffcc66}
      .w{fill:#fff}
      .p{fill:#f09}
    </style>
  </defs>
  <rect width="160" height="120" fill="#f7f7f7"/>
  <g transform="translate(20,10)">
    <circle class="g" cx="60" cy="50" r="36"/>
    <polygon class="g" points="38,22 50,10 54,28"/>
    <polygon class="g" points="82,22 70,10 66,28"/>
    <circle class="w" cx="50" cy="48" r="8"/>
    <circle class="w" cx="70" cy="48" r="8"/>
    <circle class="f" cx="50" cy="48" r="3"/>
    <circle class="f" cx="70" cy="48" r="3"/>
    <polygon class="p" points="60,56 55,64 65,64"/>
    <path class="f" d="M40 70 C 50 76, 70 76, 80 70" fill="none" stroke="#222" stroke-width="2"/>
    <path class="f" d="M25 50 L45 55 M25 55 L45 60" fill="none" stroke="#222" stroke-width="2"/>
    <path class="f" d="M95 50 L75 55 M95 55 L75 60" fill="none" stroke="#222" stroke-width="2"/>
  </g>
</svg>
