<?xml version="1.0" encoding="UTF-8"?>
<svg id="Layer_1" xmlns="http://www.w3.org/2000/svg" version="1.1" viewBox="0 0 472 124">
  <!-- Generator: Adobe Illustrator 29.3.1, SVG Export Plug-In . SVG Version: 2.1.0 Build 151)  -->
  <defs>
    <style>
      .st0 {
        fill: #fff;
      }
    </style>
  </defs>
  <g>
    <path class="st0" d="M54.9,62.3h29.3c0,16.1-13.1,29.2-29.3,29.2s-29.3-13.1-29.3-29.2,13.1-29.3,29.3-29.3,15.2,3.1,20.7,8.6l-12.8,12.8c-2-2.1-4.9-3.3-7.9-3.3-6.1,0-11.1,5-11.1,11.2s5,11.1,11.1,11.1,5.3-1.1,7.3-2.8h-7.3v-8.3Z"/>
    <path class="st0" d="M89.1,70.2v-36h16.6v36c0,2.5,2.1,4.7,4.7,4.7s4.8-2.1,4.8-4.7v-36h16.6v36c0,11.8-9.6,21.3-21.4,21.3s-21.3-9.5-21.3-21.3Z"/>
    <path class="st0" d="M132.2,90.4l25.2-57.9,25.3,57.9h-17.9l-7.4-19.7-7.3,19.7h-17.9Z"/>
    <path class="st0" d="M185.4,90.4v-56.2h21c11.6,0,20.8,9.3,20.8,20.8s-3.9,13.3-9.7,16.9l16.2,18.5h-22.4l-9.3-10.6v10.6h-16.6ZM202,62.3h3.1c3.4,0,6.2-2.7,6.2-6.2s-2.8-6.2-6.2-6.2h-3.1v12.3Z"/>
    <path class="st0" d="M235.2,90.4v-56.2h19.8c15.5,0,28.1,12.6,28.1,28.1s-12.6,28-28.1,28h-19.8ZM251.8,72.8h3.1c5.8,0,10.5-4.8,10.5-10.5s-4.7-10.5-10.5-10.5h-3.1v21Z"/>
    <path class="st0" d="M287.3,90.5v-13.9c.5.2,1.1.3,1.6.3,3.4,0,6.1-2.6,6.1-6s-1.2-4.8-2.7-7.4c-1.8-3.3-3.9-7.1-3.9-12.1,0-10.6,6.1-18.1,18.2-18.1s4,.2,5.5.8v13.8c-.4,0-.5,0-.7,0-2.9,0-5.1,2.1-5.1,5.3s1.1,3.5,2.4,5.7c2.1,3.3,4.7,7.4,4.7,14,0,9.9-7,18.5-19,18.5s-5.2-.3-7.1-.8Z"/>
  </g>
  <g>
    <rect class="st0" x="17.1" y="103.3" width="437.5" height="5.7"/>
    <rect class="st0" x="17.1" y="15" width="437.5" height="5.7"/>
    <g>
      <path class="st0" d="M349.4,54.2c6.7-7.1,10.2-10.4,13.8-13.4,4.4-3.6,8.6-5.5,12.3-5.5,5.5,0,8.8,3.8,8.8,10.1s-1.4,8.3-4,12.2c-2.7,4-5.2,6.1-11.3,9.6,2.1,4,2.7,5.7,2.7,9s-1.3,8.3-3.3,10.9c-1.9,2.4-4.7,3.5-9.2,3.5h-19l6.9-8.1h9.5c4.8,0,6.9-1.8,6.9-5.8s-1-5.4-2.8-7.9c-1.5.2-2.8.2-3.5.2-2.8,0-4.8-.2-6.9-.6l7.2-7.8c2.3.5,3.3.8,5.6,1.6,4.6-1.8,7.2-3.6,9.8-6.7,2.7-3.1,4.2-6.5,4.2-9.6s-.9-3.7-2.5-3.7c-4.6,0-15.9,10.4-34.3,31.6-4.2,7.7-5.6,10-9.9,15.6l-11.6,2c2.5-4.4,5.2-8.1,14.8-20.5l1.7-2.2c7.2-16.5,8.8-20.4,11.2-27.6l10.2-4.5-7.5,17.5Z"/>
      <path class="st0" d="M400.5,71.5c-5.8,0-8.7.6-11.6,2.3-3.8,2.1-7.8,6.7-7.8,9s1,1.6,3.1,1.6,3.3-.5,4.3-1.8c.6-2.6,1.3-4,3.4-7.9l6.8-.3-.2.3-.6,1.3c-2.1,4.4-2.5,5.4-2.5,6.8s.6,1.6,1.7,1.6h4.5l-2.5,6.2h-5.6c-2.7,0-3.6-.5-4.8-2.2-1.8,1.8-2.9,2.2-5.6,2.2-6.3,0-9.1-2-9.1-6.5s4-10.9,10.3-14.6c5.1-2.9,10.4-4.2,17.2-4.2s1.7,0,3,.2l-4.2,6.1Z"/>
      <path class="st0" d="M412.3,80.1c-1,2-1.2,2.8-1.2,3.4s.6.9,2.1.9h5.7l-2.5,6.2h-6.6c-4.7,0-6.8-1.3-6.8-4.4s.2-1.7,1.1-4.4l.5-1.3,16.6-40.5,7.9-1.2-16.8,41.4Z"/>
      <path class="st0" d="M429.3,80.1c-1,2-1.2,2.8-1.2,3.4s.6.9,2.1.9h5.7l-2.5,6.2h-6.6c-4.7,0-6.8-1.3-6.8-4.4s.2-1.7,1.1-4.4l.5-1.3,16.6-40.5,7.9-1.2-16.8,41.4Z"/>
    </g>
  </g>
</svg>